<mxfile host="Electron" agent="Mozilla/5.0 (Windows NT 10.0; Win64; x64) AppleWebKit/537.36 (KHTML, like Gecko) draw.io/24.7.17 Chrome/128.0.6613.36 Electron/32.0.1 Safari/537.36" version="24.7.17">
  <diagram name="PÃ¡gina-1" id="xg-cSJYQtZoYqTObUIcB">
    <mxGraphModel dx="1434" dy="844" grid="1" gridSize="10" guides="1" tooltips="1" connect="1" arrows="1" fold="1" page="1" pageScale="1" pageWidth="827" pageHeight="1169" math="0" shadow="0">
      <root>
        <mxCell id="0" />
        <mxCell id="1" parent="0" />
        <mxCell id="elRm-EegLzKfGu_1EHJ3-1" value="&lt;font style=&quot;font-size: 14px;&quot;&gt;Arquitectura de Software proyecto BATER-IA.&lt;/font&gt;" style="swimlane;whiteSpace=wrap;html=1;fillColor=#f5f5f5;gradientColor=#b3b3b3;strokeColor=#666666;" vertex="1" parent="1">
          <mxGeometry x="40" y="120" width="720" height="560" as="geometry" />
        </mxCell>
        <mxCell id="elRm-EegLzKfGu_1EHJ3-2" value="SAM3X8E" style="rounded=0;whiteSpace=wrap;html=1;fillColor=#dae8fc;gradientColor=#7ea6e0;strokeColor=#6c8ebf;" vertex="1" parent="elRm-EegLzKfGu_1EHJ3-1">
          <mxGeometry x="450" y="490" width="260" height="60" as="geometry" />
        </mxCell>
        <mxCell id="elRm-EegLzKfGu_1EHJ3-3" value="IMX6 QUAD" style="rounded=0;whiteSpace=wrap;html=1;fillColor=#fff2cc;gradientColor=#ffd966;strokeColor=#d6b656;" vertex="1" parent="elRm-EegLzKfGu_1EHJ3-1">
          <mxGeometry x="10" y="490" width="260" height="60" as="geometry" />
        </mxCell>
        <mxCell id="elRm-EegLzKfGu_1EHJ3-5" value="Linux Kernel" style="rounded=0;whiteSpace=wrap;html=1;fillColor=#ffcccc;strokeColor=#36393d;" vertex="1" parent="elRm-EegLzKfGu_1EHJ3-1">
          <mxGeometry x="10" y="420" width="260" height="60" as="geometry" />
        </mxCell>
        <mxCell id="elRm-EegLzKfGu_1EHJ3-6" value="SDK SAM3X8E" style="rounded=0;whiteSpace=wrap;html=1;fillColor=#0050ef;strokeColor=#001DBC;fontColor=#ffffff;" vertex="1" parent="elRm-EegLzKfGu_1EHJ3-1">
          <mxGeometry x="450" y="420" width="260" height="60" as="geometry" />
        </mxCell>
        <mxCell id="elRm-EegLzKfGu_1EHJ3-7" value="UART Communicacion interface" style="rounded=0;whiteSpace=wrap;html=1;fillColor=#6a00ff;fontColor=#ffffff;strokeColor=none;" vertex="1" parent="elRm-EegLzKfGu_1EHJ3-1">
          <mxGeometry x="280" y="110" width="160" height="300" as="geometry" />
        </mxCell>
        <mxCell id="elRm-EegLzKfGu_1EHJ3-8" value="Arduino Framework" style="rounded=0;whiteSpace=wrap;html=1;fillColor=#b0e3e6;strokeColor=#0e8088;" vertex="1" parent="elRm-EegLzKfGu_1EHJ3-1">
          <mxGeometry x="580" y="230" width="130" height="180" as="geometry" />
        </mxCell>
        <mxCell id="elRm-EegLzKfGu_1EHJ3-9" value="Complex drivers" style="rounded=0;whiteSpace=wrap;html=1;" vertex="1" parent="elRm-EegLzKfGu_1EHJ3-1">
          <mxGeometry x="450" y="230" width="120" height="180" as="geometry" />
        </mxCell>
        <mxCell id="elRm-EegLzKfGu_1EHJ3-10" value="Logical implementation C language" style="rounded=0;whiteSpace=wrap;html=1;fillColor=#d80073;fontColor=#ffffff;strokeColor=#A50040;" vertex="1" parent="elRm-EegLzKfGu_1EHJ3-1">
          <mxGeometry x="450" y="160" width="260" height="60" as="geometry" />
        </mxCell>
        <mxCell id="elRm-EegLzKfGu_1EHJ3-20" value="" style="rounded=0;whiteSpace=wrap;html=1;fillColor=#6a00ff;fontColor=#ffffff;strokeColor=none;" vertex="1" parent="elRm-EegLzKfGu_1EHJ3-1">
          <mxGeometry x="280" y="110" width="430" height="40" as="geometry" />
        </mxCell>
        <mxCell id="elRm-EegLzKfGu_1EHJ3-21" value="DEBIAN" style="rounded=0;whiteSpace=wrap;html=1;fillColor=#e51400;strokeColor=#B20000;fontColor=#ffffff;" vertex="1" parent="elRm-EegLzKfGu_1EHJ3-1">
          <mxGeometry x="10" y="280" width="260" height="130" as="geometry" />
        </mxCell>
        <mxCell id="elRm-EegLzKfGu_1EHJ3-22" value="PYTHON 3" style="rounded=0;whiteSpace=wrap;html=1;fillColor=#f0a30a;fontColor=#000000;strokeColor=#BD7000;" vertex="1" parent="elRm-EegLzKfGu_1EHJ3-1">
          <mxGeometry x="10" y="190" width="260" height="80" as="geometry" />
        </mxCell>
        <mxCell id="elRm-EegLzKfGu_1EHJ3-25" value="Data processing script" style="rounded=0;whiteSpace=wrap;html=1;fillColor=#ffff88;strokeColor=#36393d;" vertex="1" parent="elRm-EegLzKfGu_1EHJ3-1">
          <mxGeometry x="140" y="110" width="130" height="60" as="geometry" />
        </mxCell>
        <mxCell id="elRm-EegLzKfGu_1EHJ3-23" value="XGBoost model" style="rounded=0;whiteSpace=wrap;html=1;fillColor=#d5e8d4;gradientColor=#97d077;strokeColor=#82b366;" vertex="1" parent="elRm-EegLzKfGu_1EHJ3-1">
          <mxGeometry x="10" y="110" width="120" height="60" as="geometry" />
        </mxCell>
        <mxCell id="elRm-EegLzKfGu_1EHJ3-27" value="GUI" style="rounded=0;whiteSpace=wrap;html=1;fillColor=#cdeb8b;strokeColor=#36393d;" vertex="1" parent="elRm-EegLzKfGu_1EHJ3-1">
          <mxGeometry x="10" y="40" width="700" height="60" as="geometry" />
        </mxCell>
      </root>
    </mxGraphModel>
  </diagram>
</mxfile>
